<svg width="189" height="67" viewBox="0 0 189 67" fill="none" xmlns="http://www.w3.org/2000/svg">
<rect x="0.5" y="0.5" width="188" height="66" rx="3.5" fill="#1F1F1F"/>
<rect x="0.5" y="0.5" width="188" height="66" rx="3.5" stroke="#6F6F6F"/>
<g clip-path="url(#clip0_209_3037)">
<path d="M39.1229 28.0325C36.8289 29.4501 35.412 31.8802 35.412 34.5803C35.412 37.6179 37.2337 40.3855 40 41.533C39.4602 43.2881 38.6506 44.9081 37.6386 46.3932C36.1542 48.4858 34.6024 50.6458 32.3084 50.6458C30.0145 50.6458 29.3398 49.2958 26.641 49.2958C24.0096 49.2958 23.0651 50.7133 20.906 50.7133C18.747 50.7133 17.2627 48.7558 15.5759 46.3257C13.3494 42.9506 12.0675 39.0354 12 34.9178C12 28.235 16.3181 24.6574 20.6361 24.6574C22.9301 24.6574 24.8193 26.1425 26.2361 26.1425C27.5855 26.1425 29.7446 24.5899 32.3084 24.5899C35.0072 24.5224 37.5711 25.8049 39.1229 28.0325ZM31.094 21.7548C32.241 20.4048 32.8482 18.7172 32.9157 16.9621C32.9157 16.7596 32.9157 16.4896 32.8482 16.2871C30.8916 16.4896 29.0699 17.4347 27.788 18.9197C26.641 20.2022 25.9663 21.8223 25.8988 23.5774C25.8988 23.7799 25.8988 23.9824 25.9663 24.1849C26.1012 24.1849 26.3036 24.2524 26.4386 24.2524C28.2602 24.1174 29.947 23.1724 31.094 21.7548Z" fill="white"/>
</g>
<path d="M61.3984 27H59.0234L59.0391 25.7734H61.3984C62.2109 25.7734 62.888 25.6042 63.4297 25.2656C63.9714 24.9219 64.3776 24.4427 64.6484 23.8281C64.9245 23.2083 65.0625 22.4844 65.0625 21.6562V20.9609C65.0625 20.3099 64.9844 19.7318 64.8281 19.2266C64.6719 18.7161 64.4427 18.2865 64.1406 17.9375C63.8385 17.5833 63.4688 17.3151 63.0312 17.1328C62.599 16.9505 62.1016 16.8594 61.5391 16.8594H58.9766V15.625H61.5391C62.2839 15.625 62.9635 15.75 63.5781 16C64.1927 16.2448 64.7214 16.6016 65.1641 17.0703C65.612 17.5339 65.9557 18.0964 66.1953 18.7578C66.4349 19.4141 66.5547 20.1536 66.5547 20.9766V21.6562C66.5547 22.4792 66.4349 23.2214 66.1953 23.8828C65.9557 24.5391 65.6094 25.099 65.1562 25.5625C64.7083 26.026 64.1667 26.3828 63.5312 26.6328C62.901 26.8776 62.1901 27 61.3984 27ZM59.8281 15.625V27H58.3203V15.625H59.8281ZM68.2188 22.8672V22.6875C68.2188 22.0781 68.3073 21.513 68.4844 20.9922C68.6615 20.4661 68.9167 20.0104 69.25 19.625C69.5833 19.2344 69.987 18.9323 70.4609 18.7188C70.9349 18.5 71.4661 18.3906 72.0547 18.3906C72.6484 18.3906 73.1823 18.5 73.6562 18.7188C74.1354 18.9323 74.5417 19.2344 74.875 19.625C75.2135 20.0104 75.4714 20.4661 75.6484 20.9922C75.8255 21.513 75.9141 22.0781 75.9141 22.6875V22.8672C75.9141 23.4766 75.8255 24.0417 75.6484 24.5625C75.4714 25.0833 75.2135 25.5391 74.875 25.9297C74.5417 26.3151 74.138 26.6172 73.6641 26.8359C73.1953 27.0495 72.6641 27.1562 72.0703 27.1562C71.4766 27.1562 70.9427 27.0495 70.4688 26.8359C69.9948 26.6172 69.5885 26.3151 69.25 25.9297C68.9167 25.5391 68.6615 25.0833 68.4844 24.5625C68.3073 24.0417 68.2188 23.4766 68.2188 22.8672ZM69.6641 22.6875V22.8672C69.6641 23.2891 69.7135 23.6875 69.8125 24.0625C69.9115 24.4323 70.0599 24.7604 70.2578 25.0469C70.4609 25.3333 70.7135 25.5599 71.0156 25.7266C71.3177 25.888 71.6693 25.9688 72.0703 25.9688C72.4661 25.9688 72.8125 25.888 73.1094 25.7266C73.4115 25.5599 73.6615 25.3333 73.8594 25.0469C74.0573 24.7604 74.2057 24.4323 74.3047 24.0625C74.4089 23.6875 74.4609 23.2891 74.4609 22.8672V22.6875C74.4609 22.2708 74.4089 21.8776 74.3047 21.5078C74.2057 21.1328 74.0547 20.8021 73.8516 20.5156C73.6536 20.224 73.4036 19.9948 73.1016 19.8281C72.8047 19.6615 72.4557 19.5781 72.0547 19.5781C71.6589 19.5781 71.3099 19.6615 71.0078 19.8281C70.7109 19.9948 70.4609 20.224 70.2578 20.5156C70.0599 20.8021 69.9115 21.1328 69.8125 21.5078C69.7135 21.8776 69.6641 22.2708 69.6641 22.6875ZM79.8672 25.5L82.0391 18.5469H82.9922L82.8047 19.9297L80.5938 27H79.6641L79.8672 25.5ZM78.4062 18.5469L80.2578 25.5781L80.3906 27H79.4141L76.9609 18.5469H78.4062ZM85.0703 25.5234L86.8359 18.5469H88.2734L85.8203 27H84.8516L85.0703 25.5234ZM83.2031 18.5469L85.3281 25.3828L85.5703 27H84.6484L82.375 19.9141L82.1875 18.5469H83.2031ZM91.2031 20.3516V27H89.7578V18.5469H91.125L91.2031 20.3516ZM90.8594 22.4531L90.2578 22.4297C90.263 21.8516 90.349 21.3177 90.5156 20.8281C90.6823 20.3333 90.9167 19.9036 91.2188 19.5391C91.5208 19.1745 91.8802 18.8932 92.2969 18.6953C92.7188 18.4922 93.1849 18.3906 93.6953 18.3906C94.112 18.3906 94.487 18.4479 94.8203 18.5625C95.1536 18.6719 95.4375 18.849 95.6719 19.0938C95.9115 19.3385 96.0938 19.6562 96.2188 20.0469C96.3438 20.4323 96.4062 20.9036 96.4062 21.4609V27H94.9531V21.4453C94.9531 21.0026 94.888 20.6484 94.7578 20.3828C94.6276 20.112 94.4375 19.9167 94.1875 19.7969C93.9375 19.6719 93.6302 19.6094 93.2656 19.6094C92.9062 19.6094 92.5781 19.6849 92.2812 19.8359C91.9896 19.987 91.737 20.1953 91.5234 20.4609C91.3151 20.7266 91.151 21.0312 91.0312 21.375C90.9167 21.7135 90.8594 22.0729 90.8594 22.4531ZM100.172 15V27H98.7188V15H100.172ZM102.109 22.8672V22.6875C102.109 22.0781 102.198 21.513 102.375 20.9922C102.552 20.4661 102.807 20.0104 103.141 19.625C103.474 19.2344 103.878 18.9323 104.352 18.7188C104.826 18.5 105.357 18.3906 105.945 18.3906C106.539 18.3906 107.073 18.5 107.547 18.7188C108.026 18.9323 108.432 19.2344 108.766 19.625C109.104 20.0104 109.362 20.4661 109.539 20.9922C109.716 21.513 109.805 22.0781 109.805 22.6875V22.8672C109.805 23.4766 109.716 24.0417 109.539 24.5625C109.362 25.0833 109.104 25.5391 108.766 25.9297C108.432 26.3151 108.029 26.6172 107.555 26.8359C107.086 27.0495 106.555 27.1562 105.961 27.1562C105.367 27.1562 104.833 27.0495 104.359 26.8359C103.885 26.6172 103.479 26.3151 103.141 25.9297C102.807 25.5391 102.552 25.0833 102.375 24.5625C102.198 24.0417 102.109 23.4766 102.109 22.8672ZM103.555 22.6875V22.8672C103.555 23.2891 103.604 23.6875 103.703 24.0625C103.802 24.4323 103.951 24.7604 104.148 25.0469C104.352 25.3333 104.604 25.5599 104.906 25.7266C105.208 25.888 105.56 25.9688 105.961 25.9688C106.357 25.9688 106.703 25.888 107 25.7266C107.302 25.5599 107.552 25.3333 107.75 25.0469C107.948 24.7604 108.096 24.4323 108.195 24.0625C108.299 23.6875 108.352 23.2891 108.352 22.8672V22.6875C108.352 22.2708 108.299 21.8776 108.195 21.5078C108.096 21.1328 107.945 20.8021 107.742 20.5156C107.544 20.224 107.294 19.9948 106.992 19.8281C106.695 19.6615 106.346 19.5781 105.945 19.5781C105.549 19.5781 105.201 19.6615 104.898 19.8281C104.602 19.9948 104.352 20.224 104.148 20.5156C103.951 20.8021 103.802 21.1328 103.703 21.5078C103.604 21.8776 103.555 22.2708 103.555 22.6875ZM116.602 25.5547V21.2031C116.602 20.8698 116.534 20.5807 116.398 20.3359C116.268 20.0859 116.07 19.8932 115.805 19.7578C115.539 19.6224 115.211 19.5547 114.82 19.5547C114.456 19.5547 114.135 19.6172 113.859 19.7422C113.589 19.8672 113.375 20.0312 113.219 20.2344C113.068 20.4375 112.992 20.6562 112.992 20.8906H111.547C111.547 20.5885 111.625 20.2891 111.781 19.9922C111.938 19.6953 112.161 19.4271 112.453 19.1875C112.75 18.9427 113.104 18.75 113.516 18.6094C113.932 18.4635 114.396 18.3906 114.906 18.3906C115.521 18.3906 116.062 18.4948 116.531 18.7031C117.005 18.9115 117.375 19.2266 117.641 19.6484C117.911 20.0651 118.047 20.5885 118.047 21.2188V25.1562C118.047 25.4375 118.07 25.737 118.117 26.0547C118.169 26.3724 118.245 26.6458 118.344 26.875V27H116.836C116.763 26.8333 116.706 26.612 116.664 26.3359C116.622 26.0547 116.602 25.7943 116.602 25.5547ZM116.852 21.875L116.867 22.8906H115.406C114.995 22.8906 114.628 22.9245 114.305 22.9922C113.982 23.0547 113.711 23.151 113.492 23.2812C113.273 23.4115 113.107 23.5755 112.992 23.7734C112.878 23.9661 112.82 24.1927 112.82 24.4531C112.82 24.7188 112.88 24.9609 113 25.1797C113.12 25.3984 113.299 25.5729 113.539 25.7031C113.784 25.8281 114.083 25.8906 114.438 25.8906C114.88 25.8906 115.271 25.7969 115.609 25.6094C115.948 25.4219 116.216 25.1927 116.414 24.9219C116.617 24.651 116.727 24.388 116.742 24.1328L117.359 24.8281C117.323 25.0469 117.224 25.2891 117.062 25.5547C116.901 25.8203 116.685 26.0755 116.414 26.3203C116.148 26.5599 115.831 26.7604 115.461 26.9219C115.096 27.0781 114.685 27.1562 114.227 27.1562C113.654 27.1562 113.151 27.0443 112.719 26.8203C112.292 26.5964 111.958 26.2969 111.719 25.9219C111.484 25.5417 111.367 25.1172 111.367 24.6484C111.367 24.1953 111.456 23.7969 111.633 23.4531C111.81 23.1042 112.065 22.8151 112.398 22.5859C112.732 22.3516 113.133 22.1745 113.602 22.0547C114.07 21.9349 114.594 21.875 115.172 21.875H116.852ZM125.648 25.3594V15H127.102V27H125.773L125.648 25.3594ZM119.961 22.8672V22.7031C119.961 22.0573 120.039 21.4714 120.195 20.9453C120.357 20.4141 120.583 19.9583 120.875 19.5781C121.172 19.1979 121.523 18.9062 121.93 18.7031C122.341 18.4948 122.799 18.3906 123.305 18.3906C123.836 18.3906 124.299 18.4844 124.695 18.6719C125.096 18.8542 125.435 19.1224 125.711 19.4766C125.992 19.8255 126.214 20.2474 126.375 20.7422C126.536 21.237 126.648 21.7969 126.711 22.4219V23.1406C126.654 23.7604 126.542 24.3177 126.375 24.8125C126.214 25.3073 125.992 25.7292 125.711 26.0781C125.435 26.4271 125.096 26.6953 124.695 26.8828C124.294 27.0651 123.826 27.1562 123.289 27.1562C122.794 27.1562 122.341 27.0495 121.93 26.8359C121.523 26.6224 121.172 26.3229 120.875 25.9375C120.583 25.5521 120.357 25.099 120.195 24.5781C120.039 24.0521 119.961 23.4818 119.961 22.8672ZM121.414 22.7031V22.8672C121.414 23.2891 121.456 23.6849 121.539 24.0547C121.628 24.4245 121.763 24.75 121.945 25.0312C122.128 25.3125 122.359 25.5339 122.641 25.6953C122.922 25.8516 123.258 25.9297 123.648 25.9297C124.128 25.9297 124.521 25.8281 124.828 25.625C125.141 25.4219 125.391 25.1536 125.578 24.8203C125.766 24.487 125.911 24.125 126.016 23.7344V21.8516C125.953 21.5651 125.862 21.2891 125.742 21.0234C125.628 20.7526 125.477 20.513 125.289 20.3047C125.107 20.0911 124.88 19.9219 124.609 19.7969C124.344 19.6719 124.029 19.6094 123.664 19.6094C123.268 19.6094 122.927 19.6927 122.641 19.8594C122.359 20.0208 122.128 20.2448 121.945 20.5312C121.763 20.8125 121.628 21.1406 121.539 21.5156C121.456 21.8854 121.414 22.2812 121.414 22.7031ZM132.938 22.8672V22.6875C132.938 22.0781 133.026 21.513 133.203 20.9922C133.38 20.4661 133.635 20.0104 133.969 19.625C134.302 19.2344 134.706 18.9323 135.18 18.7188C135.654 18.5 136.185 18.3906 136.773 18.3906C137.367 18.3906 137.901 18.5 138.375 18.7188C138.854 18.9323 139.26 19.2344 139.594 19.625C139.932 20.0104 140.19 20.4661 140.367 20.9922C140.544 21.513 140.633 22.0781 140.633 22.6875V22.8672C140.633 23.4766 140.544 24.0417 140.367 24.5625C140.19 25.0833 139.932 25.5391 139.594 25.9297C139.26 26.3151 138.857 26.6172 138.383 26.8359C137.914 27.0495 137.383 27.1562 136.789 27.1562C136.195 27.1562 135.661 27.0495 135.188 26.8359C134.714 26.6172 134.307 26.3151 133.969 25.9297C133.635 25.5391 133.38 25.0833 133.203 24.5625C133.026 24.0417 132.938 23.4766 132.938 22.8672ZM134.383 22.6875V22.8672C134.383 23.2891 134.432 23.6875 134.531 24.0625C134.63 24.4323 134.779 24.7604 134.977 25.0469C135.18 25.3333 135.432 25.5599 135.734 25.7266C136.036 25.888 136.388 25.9688 136.789 25.9688C137.185 25.9688 137.531 25.888 137.828 25.7266C138.13 25.5599 138.38 25.3333 138.578 25.0469C138.776 24.7604 138.924 24.4323 139.023 24.0625C139.128 23.6875 139.18 23.2891 139.18 22.8672V22.6875C139.18 22.2708 139.128 21.8776 139.023 21.5078C138.924 21.1328 138.773 20.8021 138.57 20.5156C138.372 20.224 138.122 19.9948 137.82 19.8281C137.523 19.6615 137.174 19.5781 136.773 19.5781C136.378 19.5781 136.029 19.6615 135.727 19.8281C135.43 19.9948 135.18 20.224 134.977 20.5156C134.779 20.8021 134.63 21.1328 134.531 21.5078C134.432 21.8776 134.383 22.2708 134.383 22.6875ZM143.891 20.3516V27H142.445V18.5469H143.812L143.891 20.3516ZM143.547 22.4531L142.945 22.4297C142.951 21.8516 143.036 21.3177 143.203 20.8281C143.37 20.3333 143.604 19.9036 143.906 19.5391C144.208 19.1745 144.568 18.8932 144.984 18.6953C145.406 18.4922 145.872 18.3906 146.383 18.3906C146.799 18.3906 147.174 18.4479 147.508 18.5625C147.841 18.6719 148.125 18.849 148.359 19.0938C148.599 19.3385 148.781 19.6562 148.906 20.0469C149.031 20.4323 149.094 20.9036 149.094 21.4609V27H147.641V21.4453C147.641 21.0026 147.576 20.6484 147.445 20.3828C147.315 20.112 147.125 19.9167 146.875 19.7969C146.625 19.6719 146.318 19.6094 145.953 19.6094C145.594 19.6094 145.266 19.6849 144.969 19.8359C144.677 19.987 144.424 20.1953 144.211 20.4609C144.003 20.7266 143.839 21.0312 143.719 21.375C143.604 21.7135 143.547 22.0729 143.547 22.4531ZM158.797 18.5469V19.6562H154.227V18.5469H158.797ZM155.773 16.4922H157.219V24.9062C157.219 25.1927 157.263 25.4089 157.352 25.5547C157.44 25.7005 157.555 25.7969 157.695 25.8438C157.836 25.8906 157.987 25.9141 158.148 25.9141C158.268 25.9141 158.393 25.9036 158.523 25.8828C158.659 25.8568 158.76 25.8359 158.828 25.8203L158.836 27C158.721 27.0365 158.57 27.0703 158.383 27.1016C158.201 27.138 157.979 27.1562 157.719 27.1562C157.365 27.1562 157.039 27.0859 156.742 26.9453C156.445 26.8047 156.208 26.5703 156.031 26.2422C155.859 25.9089 155.773 25.4609 155.773 24.8984V16.4922ZM161.938 15V27H160.492V15H161.938ZM161.594 22.4531L160.992 22.4297C160.997 21.8516 161.083 21.3177 161.25 20.8281C161.417 20.3333 161.651 19.9036 161.953 19.5391C162.255 19.1745 162.615 18.8932 163.031 18.6953C163.453 18.4922 163.919 18.3906 164.43 18.3906C164.846 18.3906 165.221 18.4479 165.555 18.5625C165.888 18.6719 166.172 18.849 166.406 19.0938C166.646 19.3385 166.828 19.6562 166.953 20.0469C167.078 20.4323 167.141 20.9036 167.141 21.4609V27H165.688V21.4453C165.688 21.0026 165.622 20.6484 165.492 20.3828C165.362 20.112 165.172 19.9167 164.922 19.7969C164.672 19.6719 164.365 19.6094 164 19.6094C163.641 19.6094 163.312 19.6849 163.016 19.8359C162.724 19.987 162.471 20.1953 162.258 20.4609C162.049 20.7266 161.885 21.0312 161.766 21.375C161.651 21.7135 161.594 22.0729 161.594 22.4531ZM172.812 27.1562C172.224 27.1562 171.69 27.0573 171.211 26.8594C170.737 26.6562 170.328 26.3724 169.984 26.0078C169.646 25.6432 169.385 25.2109 169.203 24.7109C169.021 24.2109 168.93 23.6641 168.93 23.0703V22.7422C168.93 22.0547 169.031 21.4427 169.234 20.9062C169.438 20.3646 169.714 19.9062 170.062 19.5312C170.411 19.1562 170.807 18.8724 171.25 18.6797C171.693 18.487 172.151 18.3906 172.625 18.3906C173.229 18.3906 173.75 18.4948 174.188 18.7031C174.63 18.9115 174.992 19.2031 175.273 19.5781C175.555 19.9479 175.763 20.3854 175.898 20.8906C176.034 21.3906 176.102 21.9375 176.102 22.5312V23.1797H169.789V22H174.656V21.8906C174.635 21.5156 174.557 21.151 174.422 20.7969C174.292 20.4427 174.083 20.151 173.797 19.9219C173.51 19.6927 173.12 19.5781 172.625 19.5781C172.297 19.5781 171.995 19.6484 171.719 19.7891C171.443 19.9245 171.206 20.1276 171.008 20.3984C170.81 20.6693 170.656 21 170.547 21.3906C170.438 21.7812 170.383 22.2318 170.383 22.7422V23.0703C170.383 23.4714 170.438 23.849 170.547 24.2031C170.661 24.5521 170.826 24.8594 171.039 25.125C171.258 25.3906 171.521 25.599 171.828 25.75C172.141 25.901 172.495 25.9766 172.891 25.9766C173.401 25.9766 173.833 25.8724 174.188 25.6641C174.542 25.4557 174.852 25.1771 175.117 24.8281L175.992 25.5234C175.81 25.7995 175.578 26.0625 175.297 26.3125C175.016 26.5625 174.669 26.7656 174.258 26.9219C173.852 27.0781 173.37 27.1562 172.812 27.1562Z" fill="#A9A9A9"/>
<path d="M63.3105 40.1455L59.6631 51H57.1055L61.8867 38.2031H63.5215L63.3105 40.1455ZM66.3604 51L62.6953 40.1455L62.4756 38.2031H64.1191L68.9268 51H66.3604ZM66.1934 46.2451V48.1523H59.3291V46.2451H66.1934ZM72.1611 43.3184V54.6562H69.832V41.4902H71.9854L72.1611 43.3184ZM78.2695 46.1484V46.333C78.2695 47.0244 78.1875 47.666 78.0234 48.2578C77.8652 48.8438 77.6309 49.3564 77.3203 49.7959C77.0098 50.2295 76.623 50.5693 76.1602 50.8154C75.7031 51.0557 75.1758 51.1758 74.5781 51.1758C73.9922 51.1758 73.4824 51.0645 73.0488 50.8418C72.6152 50.6133 72.249 50.291 71.9502 49.875C71.6514 49.459 71.4111 48.9756 71.2295 48.4248C71.0537 47.8682 70.9219 47.2617 70.834 46.6055V46.0166C70.9219 45.3193 71.0537 44.6865 71.2295 44.1182C71.4111 43.5439 71.6514 43.0488 71.9502 42.6328C72.249 42.2109 72.6123 41.8857 73.04 41.6572C73.4736 41.4287 73.9805 41.3145 74.5605 41.3145C75.1641 41.3145 75.6943 41.4287 76.1514 41.6572C76.6143 41.8857 77.0039 42.2139 77.3203 42.6416C77.6367 43.0693 77.874 43.5791 78.0322 44.1709C78.1904 44.7627 78.2695 45.4219 78.2695 46.1484ZM75.9404 46.333V46.1484C75.9404 45.7266 75.9023 45.3369 75.8262 44.9795C75.75 44.6162 75.6328 44.2998 75.4746 44.0303C75.3164 43.7549 75.1113 43.541 74.8594 43.3887C74.6074 43.2363 74.3027 43.1602 73.9453 43.1602C73.5879 43.1602 73.2803 43.2188 73.0225 43.3359C72.7646 43.4531 72.5537 43.6201 72.3896 43.8369C72.2256 44.0537 72.0967 44.3115 72.0029 44.6104C71.915 44.9033 71.8564 45.2285 71.8271 45.5859V47.0449C71.8799 47.4785 71.9824 47.8682 72.1348 48.2139C72.2871 48.5596 72.5098 48.835 72.8027 49.04C73.1016 49.2451 73.4883 49.3477 73.9629 49.3477C74.3203 49.3477 74.625 49.2686 74.877 49.1104C75.1289 48.9521 75.334 48.7354 75.4922 48.46C75.6504 48.1787 75.7646 47.8564 75.835 47.4932C75.9053 47.1299 75.9404 46.7432 75.9404 46.333ZM82.2861 43.3184V54.6562H79.957V41.4902H82.1104L82.2861 43.3184ZM88.3945 46.1484V46.333C88.3945 47.0244 88.3125 47.666 88.1484 48.2578C87.9902 48.8438 87.7559 49.3564 87.4453 49.7959C87.1348 50.2295 86.748 50.5693 86.2852 50.8154C85.8281 51.0557 85.3008 51.1758 84.7031 51.1758C84.1172 51.1758 83.6074 51.0645 83.1738 50.8418C82.7402 50.6133 82.374 50.291 82.0752 49.875C81.7764 49.459 81.5361 48.9756 81.3545 48.4248C81.1787 47.8682 81.0469 47.2617 80.959 46.6055V46.0166C81.0469 45.3193 81.1787 44.6865 81.3545 44.1182C81.5361 43.5439 81.7764 43.0488 82.0752 42.6328C82.374 42.2109 82.7373 41.8857 83.165 41.6572C83.5986 41.4287 84.1055 41.3145 84.6855 41.3145C85.2891 41.3145 85.8193 41.4287 86.2764 41.6572C86.7393 41.8857 87.1289 42.2139 87.4453 42.6416C87.7617 43.0693 87.999 43.5791 88.1572 44.1709C88.3154 44.7627 88.3945 45.4219 88.3945 46.1484ZM86.0654 46.333V46.1484C86.0654 45.7266 86.0273 45.3369 85.9512 44.9795C85.875 44.6162 85.7578 44.2998 85.5996 44.0303C85.4414 43.7549 85.2363 43.541 84.9844 43.3887C84.7324 43.2363 84.4277 43.1602 84.0703 43.1602C83.7129 43.1602 83.4053 43.2188 83.1475 43.3359C82.8896 43.4531 82.6787 43.6201 82.5146 43.8369C82.3506 44.0537 82.2217 44.3115 82.1279 44.6104C82.04 44.9033 81.9814 45.2285 81.9521 45.5859V47.0449C82.0049 47.4785 82.1074 47.8682 82.2598 48.2139C82.4121 48.5596 82.6348 48.835 82.9277 49.04C83.2266 49.2451 83.6133 49.3477 84.0879 49.3477C84.4453 49.3477 84.75 49.2686 85.002 49.1104C85.2539 48.9521 85.459 48.7354 85.6172 48.46C85.7754 48.1787 85.8896 47.8564 85.96 47.4932C86.0303 47.1299 86.0654 46.7432 86.0654 46.333ZM101.446 47.6777C101.446 47.4316 101.408 47.2119 101.332 47.0186C101.262 46.8193 101.13 46.6406 100.937 46.4824C100.749 46.3184 100.482 46.1602 100.137 46.0078C99.7969 45.8496 99.3574 45.6855 98.8184 45.5156C98.2207 45.3281 97.6641 45.1172 97.1484 44.8828C96.6328 44.6484 96.1787 44.376 95.7861 44.0654C95.3994 43.7549 95.0977 43.3975 94.8809 42.9932C94.6641 42.583 94.5557 42.1084 94.5557 41.5693C94.5557 41.042 94.667 40.5615 94.8896 40.1279C95.1182 39.6943 95.4404 39.3223 95.8564 39.0117C96.2725 38.6953 96.7617 38.4521 97.3242 38.2822C97.8926 38.1123 98.5195 38.0273 99.2051 38.0273C100.154 38.0273 100.975 38.2002 101.666 38.5459C102.363 38.8916 102.902 39.3604 103.283 39.9521C103.664 40.5439 103.854 41.209 103.854 41.9473H101.446C101.446 41.5488 101.361 41.1973 101.191 40.8926C101.027 40.5879 100.775 40.3477 100.436 40.1719C100.102 39.9961 99.6797 39.9082 99.1699 39.9082C98.6777 39.9082 98.2676 39.9814 97.9395 40.1279C97.6172 40.2744 97.374 40.4736 97.21 40.7256C97.0518 40.9775 96.9727 41.2588 96.9727 41.5693C96.9727 41.8037 97.0283 42.0146 97.1396 42.2021C97.251 42.3838 97.418 42.5566 97.6406 42.7207C97.8633 42.8789 98.1387 43.0283 98.4668 43.1689C98.8008 43.3037 99.1875 43.4385 99.627 43.5732C100.33 43.7842 100.945 44.0186 101.473 44.2764C102.006 44.5342 102.448 44.8271 102.8 45.1553C103.157 45.4834 103.424 45.8525 103.6 46.2627C103.781 46.6729 103.872 47.1387 103.872 47.6602C103.872 48.2109 103.764 48.7031 103.547 49.1367C103.33 49.5703 103.02 49.9395 102.615 50.2441C102.211 50.5488 101.725 50.7803 101.156 50.9385C100.594 51.0967 99.9639 51.1758 99.2666 51.1758C98.6455 51.1758 98.0303 51.0938 97.4209 50.9297C96.8174 50.7598 96.2695 50.5078 95.7773 50.1738C95.2852 49.834 94.8926 49.4062 94.5996 48.8906C94.3066 48.3691 94.1602 47.7598 94.1602 47.0625H96.5859C96.5859 47.4668 96.6504 47.8125 96.7793 48.0996C96.9141 48.3809 97.1016 48.6123 97.3418 48.7939C97.5879 48.9697 97.875 49.0986 98.2031 49.1807C98.5312 49.2627 98.8857 49.3037 99.2666 49.3037C99.7588 49.3037 100.163 49.2363 100.479 49.1016C100.802 48.9609 101.042 48.7676 101.2 48.5215C101.364 48.2754 101.446 47.9941 101.446 47.6777ZM110.06 41.4902V43.1602H104.61V41.4902H110.06ZM106.069 39.1523H108.398V48.2578C108.398 48.5391 108.437 48.7559 108.513 48.9082C108.589 49.0605 108.703 49.1631 108.855 49.2158C109.008 49.2686 109.189 49.2949 109.4 49.2949C109.553 49.2949 109.693 49.2861 109.822 49.2686C109.951 49.251 110.06 49.2334 110.147 49.2158L110.156 50.9561C109.963 51.0205 109.743 51.0732 109.497 51.1143C109.257 51.1553 108.984 51.1758 108.68 51.1758C108.158 51.1758 107.701 51.0879 107.309 50.9121C106.916 50.7305 106.611 50.4404 106.395 50.042C106.178 49.6377 106.069 49.1045 106.069 48.4424V39.1523ZM110.965 46.3418V46.1572C110.965 45.46 111.064 44.8184 111.264 44.2324C111.463 43.6406 111.753 43.1279 112.134 42.6943C112.515 42.2607 112.98 41.9238 113.531 41.6836C114.082 41.4375 114.709 41.3145 115.412 41.3145C116.127 41.3145 116.76 41.4375 117.311 41.6836C117.867 41.9238 118.336 42.2607 118.717 42.6943C119.098 43.1279 119.388 43.6406 119.587 44.2324C119.786 44.8184 119.886 45.46 119.886 46.1572V46.3418C119.886 47.0332 119.786 47.6748 119.587 48.2666C119.388 48.8525 119.098 49.3652 118.717 49.8047C118.336 50.2383 117.87 50.5752 117.319 50.8154C116.769 51.0557 116.139 51.1758 115.43 51.1758C114.727 51.1758 114.097 51.0557 113.54 50.8154C112.983 50.5752 112.515 50.2383 112.134 49.8047C111.753 49.3652 111.463 48.8525 111.264 48.2666C111.064 47.6748 110.965 47.0332 110.965 46.3418ZM113.285 46.1572V46.3418C113.285 46.7578 113.326 47.1475 113.408 47.5107C113.49 47.874 113.616 48.1934 113.786 48.4688C113.956 48.7441 114.176 48.9609 114.445 49.1191C114.721 49.2715 115.049 49.3477 115.43 49.3477C115.805 49.3477 116.127 49.2715 116.396 49.1191C116.666 48.9609 116.886 48.7441 117.056 48.4688C117.231 48.1934 117.36 47.874 117.442 47.5107C117.524 47.1475 117.565 46.7578 117.565 46.3418V46.1572C117.565 45.7471 117.524 45.3633 117.442 45.0059C117.36 44.6426 117.231 44.3232 117.056 44.0479C116.886 43.7666 116.663 43.5469 116.388 43.3887C116.118 43.2246 115.793 43.1426 115.412 43.1426C115.037 43.1426 114.715 43.2246 114.445 43.3887C114.176 43.5469 113.956 43.7666 113.786 44.0479C113.616 44.3232 113.49 44.6426 113.408 45.0059C113.326 45.3633 113.285 45.7471 113.285 46.1572ZM123.894 43.4326V51H121.573V41.4902H123.771L123.894 43.4326ZM126.785 41.4287L126.75 43.5908C126.621 43.5674 126.475 43.5498 126.311 43.5381C126.152 43.5264 126.003 43.5205 125.862 43.5205C125.505 43.5205 125.191 43.5703 124.922 43.6699C124.652 43.7637 124.427 43.9014 124.245 44.083C124.069 44.2646 123.935 44.4873 123.841 44.751C123.747 45.0088 123.694 45.3018 123.683 45.6299L123.182 45.5684C123.182 44.9648 123.243 44.4053 123.366 43.8896C123.489 43.374 123.668 42.9229 123.902 42.5361C124.137 42.1494 124.43 41.8506 124.781 41.6396C125.139 41.4229 125.549 41.3145 126.012 41.3145C126.141 41.3145 126.278 41.3262 126.425 41.3496C126.577 41.3672 126.697 41.3936 126.785 41.4287ZM132.155 51.1758C131.435 51.1758 130.787 51.0586 130.213 50.8242C129.639 50.5898 129.149 50.2646 128.745 49.8486C128.347 49.4268 128.039 48.9375 127.822 48.3809C127.611 47.8184 127.506 47.2148 127.506 46.5703V46.2188C127.506 45.4863 127.611 44.8213 127.822 44.2236C128.033 43.6201 128.332 43.1016 128.719 42.668C129.105 42.2344 129.568 41.9004 130.107 41.666C130.646 41.4316 131.241 41.3145 131.892 41.3145C132.565 41.3145 133.16 41.4287 133.676 41.6572C134.191 41.8799 134.622 42.1963 134.968 42.6064C135.313 43.0166 135.574 43.5088 135.75 44.083C135.926 44.6514 136.014 45.2812 136.014 45.9727V46.9482H128.561V45.3486H133.729V45.1729C133.717 44.8037 133.646 44.4668 133.518 44.1621C133.389 43.8516 133.189 43.6055 132.92 43.4238C132.65 43.2363 132.302 43.1426 131.874 43.1426C131.528 43.1426 131.227 43.2188 130.969 43.3711C130.717 43.5176 130.506 43.7285 130.336 44.0039C130.172 44.2734 130.049 44.5957 129.967 44.9707C129.885 45.3457 129.844 45.7617 129.844 46.2188V46.5703C129.844 46.9688 129.896 47.3379 130.002 47.6777C130.113 48.0176 130.274 48.3135 130.485 48.5654C130.702 48.8115 130.96 49.0049 131.259 49.1455C131.563 49.2803 131.909 49.3477 132.296 49.3477C132.782 49.3477 133.222 49.2539 133.614 49.0664C134.013 48.873 134.358 48.5889 134.651 48.2139L135.82 49.4268C135.621 49.7197 135.352 50.001 135.012 50.2705C134.678 50.54 134.273 50.7598 133.799 50.9297C133.324 51.0938 132.776 51.1758 132.155 51.1758Z" fill="white"/>
<defs>
<clipPath id="clip0_209_3037">
<rect width="28" height="34.4262" fill="white" transform="translate(12 16.2871)"/>
</clipPath>
</defs>
</svg>
