<svg width="246" height="63" viewBox="0 0 246 63" fill="none" xmlns="http://www.w3.org/2000/svg">
<path d="M243.986 2.33643C229.958 3.11579 216.347 9.67546 203.248 14.0487C169.556 25.297 135.175 31.4334 100.689 39.5102C74.6737 45.6031 48.5977 50.3081 22.3692 55.2963C15.6801 56.5685 8.14208 57.4508 2 60.0831" stroke="#FF3B30" stroke-width="4" stroke-linecap="round"/>
<path d="M11.1668 2.33683C10.4427 1.70324 9.95919 2.0341 10.8612 2.74421C12.6145 4.12442 15.3524 5.05604 17.2775 5.69775C30.8691 10.2283 44.9125 14.0448 58.7798 17.5628C87.673 24.8929 117.255 29.1646 146.011 37.0154C159.646 40.738 172.351 45.5644 186.342 47.6583C193.141 48.6759 200.221 50.8541 206.966 52.3432C216.125 54.3655 225.498 56.2978 234.821 57.3337" stroke="#FF3B30" stroke-width="4" stroke-linecap="round"/>
</svg>
