<svg width="24" height="24" viewBox="0 0 24 24" fill="none" xmlns="http://www.w3.org/2000/svg">
<path d="M22.2853 12.0004C22.2853 6.31972 17.6802 1.71465 11.9996 1.71465C6.31893 1.71465 1.71387 6.31972 1.71387 12.0004C1.71387 17.1343 5.4752 21.3895 10.3924 22.1611V14.9736H7.78083V12.0004H10.3924V9.7343C10.3924 7.15644 11.928 5.73251 14.2775 5.73251C15.4028 5.73251 16.5799 5.93341 16.5799 5.93341V8.46466H15.2829C14.0052 8.46466 13.6067 9.25752 13.6067 10.0709V12.0004H16.4594L16.0034 14.9736H13.6067V22.1611C18.524 21.3895 22.2853 17.1343 22.2853 12.0004Z" fill="#1877F2"/>
<path d="M16.0038 14.9736L16.4598 12.0004H13.6071V10.071C13.6071 9.25757 14.0056 8.4647 15.2834 8.4647H16.5804V5.93345C16.5804 5.93345 15.4033 5.73256 14.2779 5.73256C11.9284 5.73256 10.3929 7.15649 10.3929 9.73435V12.0004H7.78125V14.9736H10.3929V22.1612C10.9165 22.2433 11.4533 22.2861 12 22.2861C12.5468 22.2861 13.0835 22.2433 13.6071 22.1612V14.9736H16.0038Z" fill="white"/>
</svg>
