<svg width="166" height="67" viewBox="0 0 166 67" fill="none" xmlns="http://www.w3.org/2000/svg">
<rect x="0.5" y="0.5" width="165" height="66" rx="3.5" fill="#1F1F1F"/>
<rect x="0.5" y="0.5" width="165" height="66" rx="3.5" stroke="#6F6F6F"/>
<path d="M38.32 33.792C38.32 32.882 38.2383 32.007 38.0867 31.167H26V36.1312H32.9067C32.6092 37.7353 31.705 39.0945 30.3458 40.0045V43.2245H34.4933C36.92 40.9903 38.32 37.7003 38.32 33.792Z" fill="#4285F4"/>
<path d="M26.0001 46.3335C29.4651 46.3335 32.3701 45.1843 34.4934 43.2243L30.3459 40.0043C29.1967 40.7743 27.7267 41.2293 26.0001 41.2293C22.6576 41.2293 19.8284 38.9718 18.8192 35.9385H14.5317V39.2635C16.6434 43.4576 20.9834 46.3335 26.0001 46.3335Z" fill="#34A853"/>
<path d="M18.819 35.938C18.5623 35.168 18.4165 34.3455 18.4165 33.4997C18.4165 32.6538 18.5623 31.8313 18.819 31.0613V27.7363H14.5315C13.6332 29.5247 13.1657 31.4984 13.1665 33.4997C13.1665 35.5705 13.6623 37.5305 14.5315 39.263L18.819 35.938Z" fill="#FBBC05"/>
<path d="M26.0001 25.7712C27.8842 25.7712 29.5759 26.4187 30.9059 27.6903L34.5867 24.0095C32.3642 21.9387 29.4592 20.667 26.0001 20.667C20.9834 20.667 16.6434 23.5428 14.5317 27.737L18.8192 31.062C19.8284 28.0287 22.6576 25.7712 26.0001 25.7712Z" fill="#EA4335"/>
<path d="M66.7266 21.3359V25.5C66.5859 25.7083 66.362 25.9427 66.0547 26.2031C65.7474 26.4583 65.3229 26.6823 64.7812 26.875C64.2448 27.0625 63.5521 27.1562 62.7031 27.1562C62.0104 27.1562 61.3724 27.0365 60.7891 26.7969C60.2109 26.5521 59.7083 26.1979 59.2812 25.7344C58.8594 25.2656 58.5312 24.6979 58.2969 24.0312C58.0677 23.3594 57.9531 22.599 57.9531 21.75V20.8672C57.9531 20.0182 58.0521 19.2604 58.25 18.5938C58.4531 17.9271 58.75 17.362 59.1406 16.8984C59.5312 16.4297 60.0104 16.0755 60.5781 15.8359C61.1458 15.5911 61.7969 15.4688 62.5312 15.4688C63.401 15.4688 64.1276 15.6198 64.7109 15.9219C65.2995 16.2188 65.7578 16.6302 66.0859 17.1562C66.4193 17.6823 66.6328 18.2812 66.7266 18.9531H65.2188C65.151 18.5417 65.0156 18.1667 64.8125 17.8281C64.6146 17.4896 64.3307 17.2188 63.9609 17.0156C63.5911 16.8073 63.1146 16.7031 62.5312 16.7031C62.0052 16.7031 61.5495 16.7995 61.1641 16.9922C60.7786 17.1849 60.4609 17.4609 60.2109 17.8203C59.9609 18.1797 59.7734 18.6146 59.6484 19.125C59.5286 19.6354 59.4688 20.2109 59.4688 20.8516V21.75C59.4688 22.4062 59.5443 22.9922 59.6953 23.5078C59.8516 24.0234 60.0729 24.4635 60.3594 24.8281C60.6458 25.1875 60.987 25.4609 61.3828 25.6484C61.7839 25.8359 62.2266 25.9297 62.7109 25.9297C63.2474 25.9297 63.6823 25.8854 64.0156 25.7969C64.349 25.7031 64.6094 25.5938 64.7969 25.4688C64.9844 25.3385 65.1276 25.2161 65.2266 25.1016V22.5547H62.5938V21.3359H66.7266ZM72.5156 27.1562C71.9271 27.1562 71.3932 27.0573 70.9141 26.8594C70.4401 26.6562 70.0312 26.3724 69.6875 26.0078C69.349 25.6432 69.0885 25.2109 68.9062 24.7109C68.724 24.2109 68.6328 23.6641 68.6328 23.0703V22.7422C68.6328 22.0547 68.7344 21.4427 68.9375 20.9062C69.1406 20.3646 69.4167 19.9062 69.7656 19.5312C70.1146 19.1562 70.5104 18.8724 70.9531 18.6797C71.3958 18.487 71.8542 18.3906 72.3281 18.3906C72.9323 18.3906 73.4531 18.4948 73.8906 18.7031C74.3333 18.9115 74.6953 19.2031 74.9766 19.5781C75.2578 19.9479 75.4661 20.3854 75.6016 20.8906C75.737 21.3906 75.8047 21.9375 75.8047 22.5312V23.1797H69.4922V22H74.3594V21.8906C74.3385 21.5156 74.2604 21.151 74.125 20.7969C73.9948 20.4427 73.7865 20.151 73.5 19.9219C73.2135 19.6927 72.8229 19.5781 72.3281 19.5781C72 19.5781 71.6979 19.6484 71.4219 19.7891C71.1458 19.9245 70.9089 20.1276 70.7109 20.3984C70.513 20.6693 70.3594 21 70.25 21.3906C70.1406 21.7812 70.0859 22.2318 70.0859 22.7422V23.0703C70.0859 23.4714 70.1406 23.849 70.25 24.2031C70.3646 24.5521 70.5286 24.8594 70.7422 25.125C70.9609 25.3906 71.224 25.599 71.5312 25.75C71.8438 25.901 72.1979 25.9766 72.5938 25.9766C73.1042 25.9766 73.5365 25.8724 73.8906 25.6641C74.2448 25.4557 74.5547 25.1771 74.8203 24.8281L75.6953 25.5234C75.513 25.7995 75.2812 26.0625 75 26.3125C74.7188 26.5625 74.3724 26.7656 73.9609 26.9219C73.5547 27.0781 73.0729 27.1562 72.5156 27.1562ZM81.0312 18.5469V19.6562H76.4609V18.5469H81.0312ZM78.0078 16.4922H79.4531V24.9062C79.4531 25.1927 79.4974 25.4089 79.5859 25.5547C79.6745 25.7005 79.7891 25.7969 79.9297 25.8438C80.0703 25.8906 80.2214 25.9141 80.3828 25.9141C80.5026 25.9141 80.6276 25.9036 80.7578 25.8828C80.8932 25.8568 80.9948 25.8359 81.0625 25.8203L81.0703 27C80.9557 27.0365 80.8047 27.0703 80.6172 27.1016C80.4349 27.138 80.2135 27.1562 79.9531 27.1562C79.599 27.1562 79.2734 27.0859 78.9766 26.9453C78.6797 26.8047 78.4427 26.5703 78.2656 26.2422C78.0938 25.9089 78.0078 25.4609 78.0078 24.8984V16.4922ZM88.2656 18.5469V27H86.8125V18.5469H88.2656ZM86.7031 16.3047C86.7031 16.0703 86.7734 15.8724 86.9141 15.7109C87.0599 15.5495 87.2734 15.4688 87.5547 15.4688C87.8307 15.4688 88.0417 15.5495 88.1875 15.7109C88.3385 15.8724 88.4141 16.0703 88.4141 16.3047C88.4141 16.5286 88.3385 16.7214 88.1875 16.8828C88.0417 17.0391 87.8307 17.1172 87.5547 17.1172C87.2734 17.1172 87.0599 17.0391 86.9141 16.8828C86.7734 16.7214 86.7031 16.5286 86.7031 16.3047ZM94.125 18.5469V19.6562H89.5547V18.5469H94.125ZM91.1016 16.4922H92.5469V24.9062C92.5469 25.1927 92.5911 25.4089 92.6797 25.5547C92.7682 25.7005 92.8828 25.7969 93.0234 25.8438C93.1641 25.8906 93.3151 25.9141 93.4766 25.9141C93.5964 25.9141 93.7214 25.9036 93.8516 25.8828C93.987 25.8568 94.0885 25.8359 94.1562 25.8203L94.1641 27C94.0495 27.0365 93.8984 27.0703 93.7109 27.1016C93.5286 27.138 93.3073 27.1562 93.0469 27.1562C92.6927 27.1562 92.3672 27.0859 92.0703 26.9453C91.7734 26.8047 91.5365 26.5703 91.3594 26.2422C91.1875 25.9089 91.1016 25.4609 91.1016 24.8984V16.4922ZM99.4062 22.8672V22.6875C99.4062 22.0781 99.4948 21.513 99.6719 20.9922C99.849 20.4661 100.104 20.0104 100.438 19.625C100.771 19.2344 101.174 18.9323 101.648 18.7188C102.122 18.5 102.654 18.3906 103.242 18.3906C103.836 18.3906 104.37 18.5 104.844 18.7188C105.323 18.9323 105.729 19.2344 106.062 19.625C106.401 20.0104 106.659 20.4661 106.836 20.9922C107.013 21.513 107.102 22.0781 107.102 22.6875V22.8672C107.102 23.4766 107.013 24.0417 106.836 24.5625C106.659 25.0833 106.401 25.5391 106.062 25.9297C105.729 26.3151 105.326 26.6172 104.852 26.8359C104.383 27.0495 103.852 27.1562 103.258 27.1562C102.664 27.1562 102.13 27.0495 101.656 26.8359C101.182 26.6172 100.776 26.3151 100.438 25.9297C100.104 25.5391 99.849 25.0833 99.6719 24.5625C99.4948 24.0417 99.4062 23.4766 99.4062 22.8672ZM100.852 22.6875V22.8672C100.852 23.2891 100.901 23.6875 101 24.0625C101.099 24.4323 101.247 24.7604 101.445 25.0469C101.648 25.3333 101.901 25.5599 102.203 25.7266C102.505 25.888 102.857 25.9688 103.258 25.9688C103.654 25.9688 104 25.888 104.297 25.7266C104.599 25.5599 104.849 25.3333 105.047 25.0469C105.245 24.7604 105.393 24.4323 105.492 24.0625C105.596 23.6875 105.648 23.2891 105.648 22.8672V22.6875C105.648 22.2708 105.596 21.8776 105.492 21.5078C105.393 21.1328 105.242 20.8021 105.039 20.5156C104.841 20.224 104.591 19.9948 104.289 19.8281C103.992 19.6615 103.643 19.5781 103.242 19.5781C102.846 19.5781 102.497 19.6615 102.195 19.8281C101.898 19.9948 101.648 20.224 101.445 20.5156C101.247 20.8021 101.099 21.1328 101 21.5078C100.901 21.8776 100.852 22.2708 100.852 22.6875ZM110.359 20.3516V27H108.914V18.5469H110.281L110.359 20.3516ZM110.016 22.4531L109.414 22.4297C109.419 21.8516 109.505 21.3177 109.672 20.8281C109.839 20.3333 110.073 19.9036 110.375 19.5391C110.677 19.1745 111.036 18.8932 111.453 18.6953C111.875 18.4922 112.341 18.3906 112.852 18.3906C113.268 18.3906 113.643 18.4479 113.977 18.5625C114.31 18.6719 114.594 18.849 114.828 19.0938C115.068 19.3385 115.25 19.6562 115.375 20.0469C115.5 20.4323 115.562 20.9036 115.562 21.4609V27H114.109V21.4453C114.109 21.0026 114.044 20.6484 113.914 20.3828C113.784 20.112 113.594 19.9167 113.344 19.7969C113.094 19.6719 112.786 19.6094 112.422 19.6094C112.062 19.6094 111.734 19.6849 111.438 19.8359C111.146 19.987 110.893 20.1953 110.68 20.4609C110.471 20.7266 110.307 21.0312 110.188 21.375C110.073 21.7135 110.016 22.0729 110.016 22.4531Z" fill="#A9A9A9"/>
<path d="M68.2061 44.3818V49.3652C68.0186 49.6055 67.7227 49.8662 67.3184 50.1475C66.9199 50.4287 66.3984 50.6719 65.7539 50.877C65.1094 51.0762 64.3184 51.1758 63.3809 51.1758C62.5664 51.1758 61.8223 51.041 61.1484 50.7715C60.4746 50.4961 59.8945 50.0947 59.4082 49.5674C58.9219 49.04 58.5469 48.3955 58.2832 47.6338C58.0195 46.8721 57.8877 46.002 57.8877 45.0234V44.1797C57.8877 43.2012 58.0107 42.3311 58.2568 41.5693C58.5088 40.8076 58.8662 40.1631 59.3291 39.6357C59.7979 39.1084 60.3574 38.707 61.0078 38.4316C61.6641 38.1562 62.3965 38.0186 63.2051 38.0186C64.2891 38.0186 65.1797 38.1973 65.877 38.5547C66.5801 38.9121 67.1191 39.4043 67.4941 40.0312C67.8691 40.6523 68.1035 41.3672 68.1973 42.1758H65.8418C65.7773 41.7305 65.6484 41.3408 65.4551 41.0068C65.2617 40.667 64.9863 40.4033 64.6289 40.2158C64.2773 40.0225 63.8203 39.9258 63.2578 39.9258C62.7832 39.9258 62.3643 40.0195 62.001 40.207C61.6377 40.3945 61.333 40.667 61.0869 41.0244C60.8408 41.3818 60.6533 41.8242 60.5244 42.3516C60.4014 42.8789 60.3398 43.4824 60.3398 44.1621V45.0234C60.3398 45.709 60.4102 46.3184 60.5508 46.8516C60.6914 47.3789 60.8936 47.8242 61.1572 48.1875C61.4268 48.5449 61.7578 48.8174 62.1504 49.0049C62.5488 49.1865 63 49.2773 63.5039 49.2773C63.9609 49.2773 64.3389 49.2393 64.6377 49.1631C64.9424 49.0811 65.1855 48.9844 65.3672 48.873C65.5488 48.7617 65.6895 48.6533 65.7891 48.5479V46.1484H63.249V44.3818H68.2061ZM69.9023 46.3418V46.1572C69.9023 45.46 70.002 44.8184 70.2012 44.2324C70.4004 43.6406 70.6904 43.1279 71.0713 42.6943C71.4521 42.2607 71.918 41.9238 72.4688 41.6836C73.0195 41.4375 73.6465 41.3145 74.3496 41.3145C75.0645 41.3145 75.6973 41.4375 76.248 41.6836C76.8047 41.9238 77.2734 42.2607 77.6543 42.6943C78.0352 43.1279 78.3252 43.6406 78.5244 44.2324C78.7236 44.8184 78.8232 45.46 78.8232 46.1572V46.3418C78.8232 47.0332 78.7236 47.6748 78.5244 48.2666C78.3252 48.8525 78.0352 49.3652 77.6543 49.8047C77.2734 50.2383 76.8076 50.5752 76.2568 50.8154C75.7061 51.0557 75.0762 51.1758 74.3672 51.1758C73.6641 51.1758 73.0342 51.0557 72.4775 50.8154C71.9209 50.5752 71.4521 50.2383 71.0713 49.8047C70.6904 49.3652 70.4004 48.8525 70.2012 48.2666C70.002 47.6748 69.9023 47.0332 69.9023 46.3418ZM72.2227 46.1572V46.3418C72.2227 46.7578 72.2637 47.1475 72.3457 47.5107C72.4277 47.874 72.5537 48.1934 72.7236 48.4688C72.8936 48.7441 73.1133 48.9609 73.3828 49.1191C73.6582 49.2715 73.9863 49.3477 74.3672 49.3477C74.7422 49.3477 75.0645 49.2715 75.334 49.1191C75.6035 48.9609 75.8232 48.7441 75.9932 48.4688C76.1689 48.1934 76.2979 47.874 76.3799 47.5107C76.4619 47.1475 76.5029 46.7578 76.5029 46.3418V46.1572C76.5029 45.7471 76.4619 45.3633 76.3799 45.0059C76.2979 44.6426 76.1689 44.3232 75.9932 44.0479C75.8232 43.7666 75.6006 43.5469 75.3252 43.3887C75.0557 43.2246 74.7305 43.1426 74.3496 43.1426C73.9746 43.1426 73.6523 43.2246 73.3828 43.3887C73.1133 43.5469 72.8936 43.7666 72.7236 44.0479C72.5537 44.3232 72.4277 44.6426 72.3457 45.0059C72.2637 45.3633 72.2227 45.7471 72.2227 46.1572ZM80.0977 46.3418V46.1572C80.0977 45.46 80.1973 44.8184 80.3965 44.2324C80.5957 43.6406 80.8857 43.1279 81.2666 42.6943C81.6475 42.2607 82.1133 41.9238 82.6641 41.6836C83.2148 41.4375 83.8418 41.3145 84.5449 41.3145C85.2598 41.3145 85.8926 41.4375 86.4434 41.6836C87 41.9238 87.4688 42.2607 87.8496 42.6943C88.2305 43.1279 88.5205 43.6406 88.7197 44.2324C88.9189 44.8184 89.0186 45.46 89.0186 46.1572V46.3418C89.0186 47.0332 88.9189 47.6748 88.7197 48.2666C88.5205 48.8525 88.2305 49.3652 87.8496 49.8047C87.4688 50.2383 87.0029 50.5752 86.4521 50.8154C85.9014 51.0557 85.2715 51.1758 84.5625 51.1758C83.8594 51.1758 83.2295 51.0557 82.6729 50.8154C82.1162 50.5752 81.6475 50.2383 81.2666 49.8047C80.8857 49.3652 80.5957 48.8525 80.3965 48.2666C80.1973 47.6748 80.0977 47.0332 80.0977 46.3418ZM82.418 46.1572V46.3418C82.418 46.7578 82.459 47.1475 82.541 47.5107C82.623 47.874 82.749 48.1934 82.9189 48.4688C83.0889 48.7441 83.3086 48.9609 83.5781 49.1191C83.8535 49.2715 84.1816 49.3477 84.5625 49.3477C84.9375 49.3477 85.2598 49.2715 85.5293 49.1191C85.7988 48.9609 86.0186 48.7441 86.1885 48.4688C86.3643 48.1934 86.4932 47.874 86.5752 47.5107C86.6572 47.1475 86.6982 46.7578 86.6982 46.3418V46.1572C86.6982 45.7471 86.6572 45.3633 86.5752 45.0059C86.4932 44.6426 86.3643 44.3232 86.1885 44.0479C86.0186 43.7666 85.7959 43.5469 85.5205 43.3887C85.251 43.2246 84.9258 43.1426 84.5449 43.1426C84.1699 43.1426 83.8477 43.2246 83.5781 43.3887C83.3086 43.5469 83.0889 43.7666 82.9189 44.0479C82.749 44.3232 82.623 44.6426 82.541 45.0059C82.459 45.3633 82.418 45.7471 82.418 46.1572ZM96.7529 41.4902H98.8623V50.71C98.8623 51.5713 98.6748 52.3008 98.2998 52.8984C97.9307 53.502 97.4121 53.959 96.7441 54.2695C96.0762 54.5859 95.2998 54.7441 94.415 54.7441C94.0342 54.7441 93.6211 54.6914 93.1758 54.5859C92.7363 54.4805 92.3115 54.3135 91.9014 54.085C91.4971 53.8623 91.1602 53.5723 90.8906 53.2148L91.9365 51.8438C92.2529 52.2129 92.6104 52.4912 93.0088 52.6787C93.4072 52.8721 93.8379 52.9688 94.3008 52.9688C94.7695 52.9688 95.168 52.8809 95.4961 52.7051C95.8301 52.5352 96.085 52.2832 96.2607 51.9492C96.4424 51.6211 96.5332 51.2168 96.5332 50.7363V43.6611L96.7529 41.4902ZM90.3281 46.3594V46.1748C90.3281 45.4482 90.416 44.7891 90.5918 44.1973C90.7676 43.5996 91.0195 43.0869 91.3477 42.6592C91.6816 42.2314 92.083 41.9004 92.5518 41.666C93.0264 41.4316 93.5596 41.3145 94.1514 41.3145C94.7783 41.3145 95.3057 41.4287 95.7334 41.6572C96.167 41.8857 96.5244 42.2109 96.8057 42.6328C97.0928 43.0547 97.3154 43.5557 97.4736 44.1357C97.6377 44.71 97.7637 45.3428 97.8516 46.0342V46.5352C97.7695 47.209 97.6377 47.8271 97.4561 48.3896C97.2803 48.9521 97.0459 49.4443 96.7529 49.8662C96.46 50.2822 96.0967 50.6045 95.6631 50.833C95.2295 51.0615 94.7197 51.1758 94.1338 51.1758C93.5479 51.1758 93.0205 51.0557 92.5518 50.8154C92.083 50.5752 91.6816 50.2383 91.3477 49.8047C91.0195 49.3711 90.7676 48.8613 90.5918 48.2754C90.416 47.6895 90.3281 47.0508 90.3281 46.3594ZM92.6484 46.1748V46.3594C92.6484 46.7695 92.6895 47.1533 92.7715 47.5107C92.8535 47.8682 92.9795 48.1846 93.1494 48.46C93.3193 48.7295 93.5332 48.9404 93.791 49.0928C94.0488 49.2451 94.3564 49.3213 94.7139 49.3213C95.1943 49.3213 95.5869 49.2217 95.8916 49.0225C96.2021 48.8174 96.4365 48.5391 96.5947 48.1875C96.7588 47.8301 96.8643 47.4287 96.9111 46.9834V45.6035C96.8818 45.252 96.8174 44.9268 96.7178 44.6279C96.624 44.3291 96.4922 44.0713 96.3223 43.8545C96.1523 43.6377 95.9355 43.4678 95.6719 43.3447C95.4082 43.2217 95.0947 43.1602 94.7314 43.1602C94.3799 43.1602 94.0723 43.2393 93.8086 43.3975C93.5449 43.5498 93.3281 43.7637 93.1582 44.0391C92.9883 44.3145 92.8594 44.6338 92.7715 44.9971C92.6895 45.3604 92.6484 45.7529 92.6484 46.1748ZM103.415 37.5V51H101.086V37.5H103.415ZM109.901 51.1758C109.181 51.1758 108.533 51.0586 107.959 50.8242C107.385 50.5898 106.896 50.2646 106.491 49.8486C106.093 49.4268 105.785 48.9375 105.568 48.3809C105.357 47.8184 105.252 47.2148 105.252 46.5703V46.2188C105.252 45.4863 105.357 44.8213 105.568 44.2236C105.779 43.6201 106.078 43.1016 106.465 42.668C106.852 42.2344 107.314 41.9004 107.854 41.666C108.393 41.4316 108.987 41.3145 109.638 41.3145C110.312 41.3145 110.906 41.4287 111.422 41.6572C111.938 41.8799 112.368 42.1963 112.714 42.6064C113.06 43.0166 113.32 43.5088 113.496 44.083C113.672 44.6514 113.76 45.2812 113.76 45.9727V46.9482H106.307V45.3486H111.475V45.1729C111.463 44.8037 111.393 44.4668 111.264 44.1621C111.135 43.8516 110.936 43.6055 110.666 43.4238C110.396 43.2363 110.048 43.1426 109.62 43.1426C109.274 43.1426 108.973 43.2188 108.715 43.3711C108.463 43.5176 108.252 43.7285 108.082 44.0039C107.918 44.2734 107.795 44.5957 107.713 44.9707C107.631 45.3457 107.59 45.7617 107.59 46.2188V46.5703C107.59 46.9688 107.643 47.3379 107.748 47.6777C107.859 48.0176 108.021 48.3135 108.231 48.5654C108.448 48.8115 108.706 49.0049 109.005 49.1455C109.31 49.2803 109.655 49.3477 110.042 49.3477C110.528 49.3477 110.968 49.2539 111.36 49.0664C111.759 48.873 112.104 48.5889 112.397 48.2139L113.566 49.4268C113.367 49.7197 113.098 50.001 112.758 50.2705C112.424 50.54 112.02 50.7598 111.545 50.9297C111.07 51.0938 110.522 51.1758 109.901 51.1758ZM124.896 46.333H121.6V44.4346H124.896C125.435 44.4346 125.871 44.3467 126.205 44.1709C126.545 43.9893 126.794 43.7432 126.952 43.4326C127.11 43.1162 127.189 42.7559 127.189 42.3516C127.189 41.959 127.11 41.5928 126.952 41.2529C126.794 40.9131 126.545 40.6377 126.205 40.4268C125.871 40.2158 125.435 40.1104 124.896 40.1104H122.391V51H119.974V38.2031H124.896C125.892 38.2031 126.741 38.3818 127.444 38.7393C128.153 39.0908 128.692 39.5801 129.062 40.207C129.437 40.8281 129.624 41.5371 129.624 42.334C129.624 43.1602 129.437 43.8721 129.062 44.4697C128.692 45.0674 128.153 45.5273 127.444 45.8496C126.741 46.1719 125.892 46.333 124.896 46.333ZM133.808 37.5V51H131.479V37.5H133.808ZM141.261 48.9785V44.5928C141.261 44.2705 141.205 43.9922 141.094 43.7578C140.982 43.5234 140.812 43.3418 140.584 43.2129C140.355 43.084 140.065 43.0195 139.714 43.0195C139.403 43.0195 139.131 43.0723 138.896 43.1777C138.668 43.2832 138.492 43.4326 138.369 43.626C138.246 43.8135 138.185 44.0303 138.185 44.2764H135.855C135.855 43.8838 135.949 43.5117 136.137 43.1602C136.324 42.8027 136.591 42.4863 136.937 42.2109C137.288 41.9297 137.707 41.71 138.193 41.5518C138.686 41.3936 139.236 41.3145 139.846 41.3145C140.566 41.3145 141.208 41.4375 141.771 41.6836C142.339 41.9238 142.784 42.2871 143.106 42.7734C143.435 43.2598 143.599 43.8721 143.599 44.6104V48.7588C143.599 49.2334 143.628 49.6406 143.687 49.9805C143.751 50.3145 143.845 50.6045 143.968 50.8506V51H141.604C141.492 50.7598 141.407 50.4551 141.349 50.0859C141.29 49.7109 141.261 49.3418 141.261 48.9785ZM141.586 45.208L141.604 46.5879H140.136C139.772 46.5879 139.453 46.626 139.178 46.7021C138.902 46.7725 138.677 46.8779 138.501 47.0186C138.325 47.1533 138.193 47.3174 138.105 47.5107C138.018 47.6982 137.974 47.9121 137.974 48.1523C137.974 48.3867 138.026 48.5977 138.132 48.7852C138.243 48.9727 138.401 49.1221 138.606 49.2334C138.817 49.3389 139.063 49.3916 139.345 49.3916C139.755 49.3916 140.112 49.3096 140.417 49.1455C140.722 48.9756 140.959 48.7705 141.129 48.5303C141.299 48.29 141.39 48.0615 141.401 47.8447L142.069 48.8467C141.987 49.0869 141.864 49.3418 141.7 49.6113C141.536 49.8809 141.325 50.1328 141.067 50.3672C140.81 50.6016 140.499 50.7949 140.136 50.9473C139.772 51.0996 139.351 51.1758 138.87 51.1758C138.255 51.1758 137.704 51.0527 137.218 50.8066C136.731 50.5605 136.348 50.2236 136.066 49.7959C135.785 49.3682 135.645 48.8818 135.645 48.3369C135.645 47.833 135.738 47.3877 135.926 47.001C136.113 46.6143 136.392 46.2891 136.761 46.0254C137.13 45.7559 137.587 45.5537 138.132 45.4189C138.683 45.2783 139.312 45.208 140.021 45.208H141.586ZM148.336 49.9453L150.885 41.4902H153.372L149.558 52.4414C149.47 52.6758 149.355 52.9307 149.215 53.2061C149.08 53.4814 148.898 53.7422 148.67 53.9883C148.441 54.2402 148.154 54.4453 147.809 54.6035C147.469 54.7617 147.056 54.8408 146.569 54.8408C146.358 54.8408 146.171 54.8262 146.007 54.7969C145.843 54.7676 145.67 54.7295 145.488 54.6826V52.9424C145.547 52.9482 145.614 52.9512 145.69 52.9512C145.772 52.957 145.843 52.96 145.901 52.96C146.241 52.96 146.522 52.9189 146.745 52.8369C146.968 52.7607 147.146 52.6348 147.281 52.459C147.422 52.2891 147.539 52.0664 147.633 51.791L148.336 49.9453ZM147.079 41.4902L149.232 48.4951L149.61 50.9473L148.011 51.2373L144.574 41.4902H147.079Z" fill="white"/>
</svg>
