<svg width="81" height="26" viewBox="0 0 81 26" fill="none" xmlns="http://www.w3.org/2000/svg">
<path d="M0.948 19.5V3.3H9.684C11.716 3.3 13.048 3.872 13.68 5.016C14.32 6.152 14.64 7.556 14.64 9.228C14.64 10.908 14.32 12.32 13.68 13.464C13.04 14.608 11.708 15.18 9.684 15.18H5.04V19.5H0.948ZM5.04 12.408H8.46C9.236 12.408 9.784 12.164 10.104 11.676C10.424 11.18 10.584 10.368 10.584 9.24C10.584 8.112 10.42 7.304 10.092 6.816C9.772 6.32 9.228 6.072 8.46 6.072H5.04V12.408ZM16.8013 19.5V0.659999H20.8453V19.5H16.8013ZM28.5165 19.644C27.6525 19.644 26.8805 19.576 26.2005 19.44C25.5285 19.296 24.9565 19.056 24.4845 18.72C24.0125 18.384 23.6525 17.932 23.4045 17.364C23.1565 16.796 23.0325 16.088 23.0325 15.24C23.0325 14.432 23.1485 13.756 23.3805 13.212C23.6205 12.668 23.9685 12.232 24.4245 11.904C24.8885 11.568 25.4605 11.328 26.1405 11.184C26.8205 11.032 27.6045 10.956 28.4925 10.956H32.9805V10.416C32.9805 9.776 32.8645 9.272 32.6325 8.904C32.4085 8.528 32.0805 8.256 31.6485 8.088C31.2165 7.92 30.7045 7.836 30.1125 7.836C29.6405 7.836 29.2005 7.912 28.7925 8.064C28.3925 8.208 28.0485 8.452 27.7605 8.796C27.4725 9.14 27.2685 9.604 27.1485 10.188L23.2005 9.096C23.3685 8.36 23.6645 7.74 24.0885 7.236C24.5205 6.724 25.0445 6.316 25.6605 6.012C26.2765 5.708 26.9605 5.488 27.7125 5.352C28.4725 5.208 29.2645 5.136 30.0885 5.136C31.6005 5.136 32.8725 5.316 33.9045 5.676C34.9365 6.036 35.7165 6.62 36.2445 7.428C36.7725 8.228 37.0365 9.292 37.0365 10.62V19.5H33.6765L33.3285 17.868C33.2005 18.084 32.9925 18.296 32.7045 18.504C32.4165 18.712 32.0645 18.904 31.6485 19.08C31.2325 19.248 30.7605 19.384 30.2325 19.488C29.7045 19.592 29.1325 19.644 28.5165 19.644ZM29.4285 17.064C29.9805 17.064 30.4925 17 30.9645 16.872C31.4365 16.744 31.8405 16.576 32.1765 16.368C32.5205 16.152 32.7685 15.924 32.9205 15.684V13.14H29.4525C29.1005 13.14 28.7805 13.168 28.4925 13.224C28.2045 13.272 27.9565 13.364 27.7485 13.5C27.5485 13.636 27.3925 13.832 27.2805 14.088C27.1765 14.344 27.1245 14.676 27.1245 15.084C27.1245 15.492 27.1805 15.824 27.2925 16.08C27.4045 16.336 27.5645 16.536 27.7725 16.68C27.9805 16.816 28.2245 16.916 28.5045 16.98C28.7845 17.036 29.0925 17.064 29.4285 17.064ZM42.2304 19.5L38.1984 5.28H42.4104L45.2904 16.848H45.3144L48.1584 5.28H52.3824L48.3864 19.5H42.2304ZM39.2424 25.092V22.356C40.8904 22.356 42.1184 22.18 42.9264 21.828C43.7424 21.476 44.3184 20.696 44.6544 19.488L48.3864 19.5C47.7304 21.796 46.6544 23.3 45.1584 24.012C43.6624 24.732 41.6904 25.092 39.2424 25.092Z" fill="#FAFAFA"/>
<path d="M69 22.5C74.5228 22.5 79 18.0228 79 12.5C79 6.97715 74.5228 2.5 69 2.5C63.4772 2.5 59 6.97715 59 12.5C59 18.0228 63.4772 22.5 69 22.5Z" stroke="#03D26F" stroke-width="2"/>
<path d="M66.5 12.0855V13.9145C66.5 15.6509 66.5 16.519 66.9908 16.8699C67.4816 17.2208 68.1529 16.8326 69.4955 16.0561L71.0766 15.1415C72.6922 14.2071 73.5 13.7399 73.5 13C73.5 12.2601 72.6922 11.7929 71.0766 10.8585L69.4955 9.94393C68.1529 9.16743 67.4816 8.77918 66.9908 9.13008C66.5 9.48098 66.5 10.3491 66.5 12.0855Z" fill="#03D26F"/>
</svg>
