<svg width="20" height="20" viewBox="0 0 20 20" fill="none" xmlns="http://www.w3.org/2000/svg">
<mask id="mask0_136_3955" style="mask-type:alpha" maskUnits="userSpaceOnUse" x="0" y="0" width="20" height="20">
<rect width="20" height="20" fill="#D9D9D9"/>
</mask>
<g mask="url(#mask0_136_3955)">
<path d="M7.95794 12.625L15.0204 5.5625C15.1871 5.39583 15.3815 5.3125 15.6038 5.3125C15.826 5.3125 16.0204 5.39583 16.1871 5.5625C16.3538 5.72917 16.4371 5.92708 16.4371 6.15625C16.4371 6.38542 16.3538 6.58333 16.1871 6.75L8.54127 14.4167C8.3746 14.5833 8.18016 14.6667 7.95794 14.6667C7.73571 14.6667 7.54127 14.5833 7.3746 14.4167L3.79127 10.8333C3.6246 10.6667 3.54474 10.4688 3.55169 10.2396C3.55863 10.0104 3.64544 9.8125 3.8121 9.64583C3.97877 9.47917 4.17669 9.39583 4.40585 9.39583C4.63502 9.39583 4.83294 9.47917 4.9996 9.64583L7.95794 12.625Z" fill="#7D7D7D"/>
</g>
</svg>
