<svg width="24" height="18" viewBox="0 0 24 18" fill="none" xmlns="http://www.w3.org/2000/svg">
<g clip-path="url(#clip0_209_3018)">
<path d="M23.4985 3.20509C23.2225 2.16929 22.4093 1.35365 21.3766 1.07683C19.505 0.57374 12 0.57374 12 0.57374C12 0.57374 4.495 0.57374 2.62335 1.07683C1.59076 1.35365 0.777485 2.16929 0.501509 3.20509C0 5.08239 0 8.99927 0 8.99927C0 8.99927 0 12.9161 0.501509 14.7936C0.777485 15.8293 1.59076 16.6449 2.62335 16.9218C4.495 17.4248 12 17.4248 12 17.4248C12 17.4248 19.505 17.4248 21.3766 16.9218C22.4093 16.6449 23.2225 15.8293 23.4985 14.7936C24 12.9161 24 8.99927 24 8.99927C24 8.99927 24 5.08239 23.4985 3.20509Z" fill="#ED1D24"/>
<path d="M9.5459 12.5557L15.8186 8.99961L9.5459 5.44322V12.5557Z" fill="white"/>
</g>
<defs>
<clipPath id="clip0_209_3018">
<rect width="24" height="16.8511" fill="white" transform="translate(0 0.574219)"/>
</clipPath>
</defs>
</svg>
